<svg width="24" height="24" viewBox="0 0 24 24" fill="none" xmlns="http://www.w3.org/2000/svg">
<path d="M19.1834 5.50781C17.6787 3.86719 15.4568 3 12.7568 3C10.3662 3 8.03648 3.92812 6.20367 5.61562C4.37085 7.30312 3.24585 9.54375 3.03492 11.9344C2.82398 14.3578 3.57398 16.6359 5.14429 18.3516C6.70992 20.0578 8.89429 21 11.3037 21C12.8271 21 13.8162 20.8875 15.3115 20.2641C15.6912 20.1047 15.874 19.6641 15.7146 19.2844C15.5552 18.9047 15.1146 18.7219 14.7349 18.8813C13.4599 19.4156 12.6818 19.5047 11.3084 19.5047C9.32554 19.5047 7.53023 18.7359 6.25523 17.3438C4.97085 15.9422 4.35679 14.0672 4.53492 12.0703C4.90054 7.89844 8.59429 4.50469 12.7662 4.50469C15.0349 4.50469 16.8724 5.20312 18.0865 6.525C19.2396 7.78594 19.7552 9.525 19.5771 11.55C19.4224 13.3031 18.7427 14.1656 18.2037 14.5781C17.688 14.9719 17.1724 15.0563 16.8912 15.0047C16.0615 14.8594 15.6302 14.0437 15.738 12.8344L16.1365 8.32031C16.174 7.90781 15.8693 7.54219 15.4568 7.50937C15.0443 7.47187 14.6787 7.77656 14.6459 8.18906L14.6084 8.61563C13.8959 7.89844 12.949 7.50469 11.9318 7.50469C10.8162 7.50469 9.7521 7.97813 8.93179 8.83594C8.14429 9.65625 7.65679 10.7625 7.55367 11.9391C7.43648 13.2469 7.82554 14.4844 8.60835 15.3422C9.29273 16.0922 10.2396 16.5047 11.2755 16.5047C12.4193 16.5047 13.4974 16.0828 14.3084 15.3234C14.4209 15.2203 14.5287 15.1078 14.6271 14.9906C15.0912 15.8859 15.888 16.35 16.638 16.4859C17.4302 16.6266 18.3584 16.3594 19.1271 15.7734C19.9099 15.1734 20.8802 13.9781 21.0818 11.6859C21.274 9.25313 20.6084 7.06406 19.1834 5.50781ZM11.2568 15C10.638 15 10.099 14.7656 9.69585 14.325C9.19429 13.7766 8.95054 12.9516 9.03023 12.0656C9.18023 10.3453 10.4505 9 11.9177 9C12.5646 9 13.1599 9.2625 13.6005 9.74063C14.1115 10.2984 14.3599 11.0953 14.2849 11.9344C14.0974 14.0484 12.6255 15 11.2568 15Z" fill="#B52184"/>
</svg>
