<svg width="20" height="20" viewBox="0 0 20 20" fill="none" xmlns="http://www.w3.org/2000/svg">
<path d="M12.9939 2.52266C12.2337 1.70195 11.172 1.25 10.0001 1.25C8.82198 1.25 7.75674 1.69922 7.0001 2.51484C6.23526 3.33945 5.8626 4.46016 5.9501 5.67031C6.12354 8.05781 7.94034 10 10.0001 10C12.0599 10 13.8735 8.0582 14.0497 5.67109C14.1384 4.47187 13.7634 3.35352 12.9939 2.52266Z" fill="#312D64"/>
<path d="M16.8751 18.75H3.1251C2.94513 18.7523 2.76689 18.7145 2.60337 18.6393C2.43984 18.5641 2.29514 18.4534 2.17979 18.3152C1.92588 18.0117 1.82354 17.5973 1.89932 17.1781C2.22901 15.3492 3.25791 13.8129 4.8751 12.7344C6.31182 11.777 8.13174 11.25 10.0001 11.25C11.8685 11.25 13.6884 11.7773 15.1251 12.7344C16.7423 13.8125 17.7712 15.3488 18.1009 17.1777C18.1767 17.5969 18.0743 18.0113 17.8204 18.3148C17.7051 18.4531 17.5604 18.5639 17.3969 18.6391C17.2334 18.7144 17.0551 18.7523 16.8751 18.75Z" fill="#312D64"/>
</svg>
